<svg style="position: absolute; width: 0; height: 0;" width="0" height="0" version="1.1" xmlns="http://www.w3.org/2000/svg" xmlns:xlink="http://www.w3.org/1999/xlink"><defs><symbol id="calendar-check" viewBox="0 -128 1024 1024"><path d="M738 418 q4 -5 4 -11.5 q0 -6.5 -4 -10.5 l-23 -24 q-5 -4 -11.5 -4 q-6.5 0 -11.5 4 l-223 223 l-110 -110 q-5 -5 -12 -5 q-7 0 -11 5 l-23 23 q-5 5 -5 11.5 q0 6.5 5 11.5 l144 144 q6 5 12.5 5 q6.5 0 11.5 -5 l257 -257 ZM148 255 l707 0 l0 515 l-707 0 l0 -515 ZM340 159 q0 7 -4.5 11.5 q-4.5 4.5 -11.5 4.5 l-32 0 q-7 0 -11.5 -4.5 q-4.5 -4.5 -4.5 -11.5 l0 -145 q0 -7 4.5 -11.5 q4.5 -4.5 11.5 -4.5 l32 0 q7 0 11.5 4.5 q4.5 4.5 4.5 11.5 l0 145 ZM726 159 q0 7 -4.5 11.5 q-4.5 4.5 -11.5 4.5 l-32 0 q-7 0 -11.5 -4.5 q-4.5 -4.5 -4.5 -11.5 l0 -145 q0 -7 4.5 -11.5 q4.5 -4.5 11.5 -4.5 l32 0 q7 0 11.5 4.5 q4.5 4.5 4.5 11.5 l0 145 ZM919 127 q0 -26 -19 -45 q-19 -19 -45 -19 l-65 0 l0 -49 q0 -33 -23.5 -56.5 q-23.5 -23.5 -56.5 -23.5 l-32 0 q-33 0 -56.5 23.5 q-23.5 23.5 -23.5 56.5 l0 49 l-193 0 l0 -49 q0 -33 -23.5 -56.5 q-23.5 -23.5 -57.5 -23.5 l-32 0 q-33 0 -56.5 23.5 q-23.5 23.5 -23.5 56.5 l0 49 l-64 0 q-26 0 -45.5 19 q-19.5 19 -19.5 45 l0 643 q0 26 19.5 45 q19.5 19 45.5 19 l707 0 q26 0 45 -19 q19 -19 19 -45 l0 -643 Z"></path></symbol><symbol id="angle-left" viewBox="0 -128 1024 1024"><path d="M633 535 q12 13 12 30 q0 17 -12.5 30 q-12.5 13 -30 13 q-17.5 0 -30.5 -13 l-181 -183 q-12 -12 -12 -30 q0 -18 12 -30 l181 -181 q13 -13 30.5 -13 q17.5 0 30 13 q12.5 13 12.5 30 q0 17 -12 30 l-151 151 l151 153 Z"></path></symbol><symbol id="behance" viewBox="0 -128 1024 1024"><path d="M664 415 q6 -38 27 -59.5 q21 -21.5 59 -21.5 q35 0 59 20.5 q24 20.5 26 60.5 l-171 0 ZM935 405 q-7 -45 -30 -79 q-26 -39 -66 -56.5 q-40 -17.5 -89 -17.5 q-84 0 -136.5 52.5 q-52.5 52.5 -52.5 151.5 q1 106 58 153 q59 46 134 47 q93 0 143 -56 q34 -35 38 -69 l-102 0 q-9 17 -21 26 q-20 18 -53.5 18 q-33.5 0 -56.5 -15 q-37 -22 -40 -80 l278 0 q1 -49 -4 -75 ZM409 491 q0 49 -35 66 q-19 10 -54 10 l-112 0 l0 -143 l114 0 q34 2 53 10 q34 16 34 57 ZM208 220 l99 0 q38 0 62 8 q29 13 29 50 q0 33 -21.5 46 q-21.5 13 -56.5 13 l-112 0 l0 -117 ZM500 421 q-21 -32 -61 -47 q26 -14 40 -30 q24 -30 24 -78 q0 -48 -24 -81 q-40 -56 -138 -57 l-256 0 l0 531 l240 0 q40 0 74.5 -7.5 q34.5 -7.5 60.5 -26.5 q22 -17 37 -42 q23 -37 24 -84 q0 -46 -21 -78 ZM856 150 l-214 0 l0 53 l214 0 l0 -53 Z"></path></symbol><symbol id="angle-right" viewBox="0 -128 1024 1024"><path d="M633 355 q12 12 12 30 q0 18 -12 30 l-181 181 q-13 12 -30.5 12 q-17.5 0 -30 -12.5 q-12.5 -12.5 -12.5 -29.5 q0 -17 12 -30 l151 -151 l-151 -151 q-12 -13 -12 -30 q0 -17 12.5 -30 q12.5 -13 30 -13 q17.5 0 30.5 13 l181 181 Z"></path></symbol><symbol id="hamburger" viewBox="0 -128 1024 1024"><path d="M958 19 q0 -8 -5 -13 q-5 -5 -12 -5 l-862 0 q-7 0 -12 5 q-5 5 -5 13 l0 90 q0 7 5 12 q5 5 12 5 l862 0 q7 0 12 -5 q5 -5 5 -12 l0 -90 ZM958 338 q0 -7 -5 -12 q-5 -5 -12 -5 l-862 0 q-7 0 -12 5 q-5 5 -5 12 l0 90 q0 8 5 13 q5 5 12 5 l862 0 q7 0 12 -5 q5 -5 5 -13 l0 -90 ZM958 658 q0 -7 -5 -12 q-5 -5 -12 -5 l-862 0 q-7 0 -12 5 q-5 5 -5 12 l0 90 q0 8 5 13 q5 5 12 5 l862 0 q7 0 12 -5 q5 -5 5 -13 l0 -90 Z"></path></symbol><symbol id="search" viewBox="0 -128 1024 1024"><path d="M695 274 q0 106 -75 181 q-75 75 -181 75 q-106 0 -181 -75 q-75 -75 -75 -180.5 q0 -105.5 75 -181 q75 -75.5 181 -75.5 q106 0 181 75.5 q75 75.5 75 180.5 ZM987 750 q0 -30 -21 -52 l-196 -196 q71 -102 71 -228 q0 -81 -31.5 -155.5 q-31.5 -74.5 -85.5 -128.5 q-54 -54 -128.5 -86 q-74.5 -32 -156.5 -32 q-82 0 -156.5 32 q-74.5 32 -128.5 86 q-54 54 -85.5 128.5 q-31.5 74.5 -31.5 156 q0 81.5 31.5 156 q31.5 74.5 85.5 128.5 q54 54 128.5 86 q74.5 32 156.5 32 q126 0 228 -71 l196 195 q20 22 50.5 22 q30.5 0 52 -21.5 q21.5 -21.5 21.5 -51.5 Z"></path></symbol><symbol id="archive" viewBox="0 -128 1024 1024"><path d="M773 192 q7 0 12.5 5.5 q5.5 5.5 5.5 13.5 q0 8 -5.5 13.5 q-5.5 5.5 -12.5 5.5 l-522 0 q-7 0 -12.5 -5.5 q-5.5 -5.5 -5.5 -13.5 q0 -8 5.5 -13.5 q5.5 -5.5 12.5 -5.5 l522 0 l0 0 ZM791 95 q8 0 13.5 5.5 q5.5 5.5 5.5 13.5 q0 8 -5.5 13.5 q-5.5 5.5 -13.5 5.5 l-558 0 q-8 0 -13.5 -5.5 q-5.5 -5.5 -5.5 -13.5 q0 -8 5.5 -13.5 q5.5 -5.5 13.5 -5.5 l558 0 l0 0 ZM949 294 q10 10 10 29 l0 439 q0 16 -7.5 28 q-7.5 12 -22.5 13 l-819 0 q-16 -1 -30 -13 q-14 -12 -15 -28 l0 -439 q1 -13 10 -21 l73 -283 q11 -26 28.5 -38 q17.5 -12 44.5 -12 l581 -1 q32 0 48.5 13.5 q16.5 13.5 24.5 36.5 l0 2 l74 274 l0 0 ZM735 493 l-446 0 l0 111 l446 0 l0 -111 ZM903 325 l-63 -294 q-5 -14 -12.5 -19.5 q-7.5 -5.5 -25.5 -5.5 l-581 2 q-17 0 -25 5.5 q-8 5.5 -13 19.5 l-62 292 l536 1 q21 -1 22 -1 l224 0 ZM679 325 l0 0 Z"></path></symbol><symbol id="cup" viewBox="0 -128 1024 1024"><path d="M819 247 q44 2 73 30.5 q29 28.5 30 72.5 l0 102 q-1 44 -30 73 q-29 29 -73 30 l-110 0 q-12 50 -39 94 q-27 44 -67 76 l114 0 l0 69 l-615 0 l0 -69 l115 0 q-53 -42 -83.5 -104 q-30.5 -62 -31.5 -135 l0 -239 l717 0 ZM853 350 q0 -15 -9.5 -24.5 q-9.5 -9.5 -24.5 -9.5 l-102 0 l0 170 l102 0 q15 0 24.5 -9.5 q9.5 -9.5 9.5 -24.5 l0 -102 ZM375 179 l69 0 l0 -205 l-69 0 l0 205 ZM239 179 l68 0 l0 -205 l-68 0 l0 205 ZM512 179 l68 0 l0 -205 l-68 0 l0 205 Z"></path></symbol><symbol id="friend" viewBox="0 -128 1024 1024"><path d="M649 789 q104 -2 182 -63 q78 -61 99 -159 q3 -10 0.5 -21 q-2.5 -11 -8.5 -18 q-55 -57 -126 -88 q-71 -31 -151.5 -31 q-80.5 0 -151.5 31 q-71 31 -126 88 q-7 7 -9.5 18 q-2.5 11 0.5 21 q28 98 107 159 q79 61 184 63 ZM448 567 q84 -77 200.5 -77 q116.5 0 200.5 77 q-26 62 -79 98.5 q-53 36.5 -121.5 36.5 q-68.5 0 -122.5 -36.5 q-54 -36.5 -78 -98.5 ZM649 383 q88 -2 149 -61.5 q61 -59.5 64 -151.5 q-2 -92 -62 -151.5 q-60 -59.5 -151 -61.5 q-92 2 -152 61.5 q-60 59.5 -62 151.5 q2 92 62 151.5 q60 59.5 152 61.5 ZM649 42 q52 1 89 36.5 q37 35.5 39 91.5 q-2 56 -37.5 91.5 q-35.5 35.5 -90.5 36.5 q-56 -1 -91.5 -36.5 q-35.5 -35.5 -36.5 -91.5 q1 -56 36.5 -91.5 q35.5 -35.5 91.5 -36.5 ZM393 341 q72 -2 120 -50.5 q48 -48.5 50 -120.5 q-2 -72 -50 -120.5 q-48 -48.5 -120 -50.5 q-73 2 -121 50.5 q-48 48.5 -50 120.5 q2 72 50 120.5 q48 48.5 121 50.5 ZM393 746 q91 -2 157 -54.5 q66 -52.5 90 -137.5 q-45 -49 -109 -77.5 q-64 -28.5 -138.5 -28.5 q-74.5 0 -138 28.5 q-63.5 28.5 -109.5 77.5 q24 85 90 137.5 q66 52.5 158 54.5 ZM393 789 q104 -2 182.5 -64 q78.5 -62 102.5 -162 q3 -10 0.5 -21 q-2.5 -11 -8.5 -18 q-55 -58 -126 -88.5 q-71 -30.5 -151.5 -30.5 q-80.5 0 -152 31 q-71.5 31 -129.5 92 q-7 7 -9.5 18 q-2.5 11 0.5 21 q28 98 107 159 q79 61 184 63 ZM192 567 q42 -39 94 -58 q52 -19 106.5 -19 q54.5 0 106.5 19 q52 19 94 58 q-26 62 -79 98.5 q-53 36.5 -121.5 36.5 q-68.5 0 -122.5 -36.5 q-54 -36.5 -78 -98.5 ZM393 383 q88 -2 149 -61.5 q61 -59.5 64 -151.5 q-2 -92 -62 -151.5 q-60 -59.5 -151 -61.5 q-92 2 -152 61.5 q-60 59.5 -62 151.5 q2 92 62 151.5 q60 59.5 152 61.5 ZM393 42 q52 1 89 36.5 q37 35.5 39 91.5 q-2 56 -37.5 91.5 q-35.5 35.5 -90.5 36.5 q-56 -1 -91.5 -36.5 q-35.5 -35.5 -36.5 -91.5 q1 -56 36.5 -91.5 q35.5 -35.5 91.5 -36.5 Z"></path></symbol><symbol id="tag" viewBox="0 -128 1024 1024"><path d="M877 368 q23 25 23 55 q0 30 -23 54 l-272 272 q-24 23 -54 23 q-30 0 -55 -23 l-349 -349 q-12 -12 -17.5 -25 q-5.5 -13 -5.5 -30 l0 -272 q0 -35 21 -56 q21 -21 56 -21 l272 0 q17 0 30 5.5 q13 5.5 25 17.5 l349 349 ZM357 229 q17 -19 17 -43 q0 -24 -18 -42 q-18 -18 -42 -18 q-24 0 -42 18 q-18 18 -18 42 q0 24 18 42 q18 18 42 18 q24 0 43 -17 Z"></path></symbol><symbol id="book" viewBox="0 -128 1024 1024"><path d="M973 145 q-12 -16 -34 -24 q2 20 -2 32 l-172 564 q-4 15 -19.5 24 q-15.5 9 -32.5 9 l-527 0 q-69 0 -83 -40 q-5 -16 1 -24.5 q6 -8.5 22 -8.5 l496 0 q53 0 73.5 -20 q20.5 -20 41.5 -88 l156 -518 q13 -42 -10 -74 q-23 -32 -65 -32 l-435 0 q-8 0 -29 5 l0 -1 q-16 -4 -27 -3.5 q-11 0.5 -20.5 6.5 q-9.5 6 -15 13.5 q-5.5 7.5 -11 18.5 q-5.5 11 -9.5 20.5 q-4 9.5 -8.5 20 q-4.5 10.5 -9.5 17.5 l-10 12 q-6 7 -10 13 q-4 6 -5 10.5 q-1 4.5 1 14.5 q2 10 2 15 q-2 22 -15.5 55 q-13.5 33 -24.5 48 q-2 3 -12.5 13 q-10.5 10 -12.5 18 q-3 2 -1 15.5 q2 13.5 2 18.5 q-2 19 -14 51 q-12 32 -24 53 q-2 3 -10 13 q-8 10 -9.5 15.5 q-1.5 5.5 0 16.5 q1.5 11 -0.5 17 q-4 22 -17 52.5 q-13 30.5 -26 52.5 q-3 5 -9 13 q-6 8 -9.5 13.5 q-3.5 5.5 -4.5 12.5 q-1 3 1.5 10.5 q2.5 7.5 1.5 12.5 l-4 37 q-12 34 1 72 q16 45 57 75.5 q41 30.5 85 30.5 l528 0 q37 0 69.5 -25 q32.5 -25 43.5 -61 l157 -518 q13 -41 -10 -74 ZM377 110 q2 -8 9.5 -13.5 q7.5 -5.5 14.5 -5.5 l348 0 q8 0 11 5.5 q3 5.5 1 13.5 l-12 36 q-2 8 -9 13.5 q-7 5.5 -15 5.5 l-347 0 q-8 0 -11.5 -5.5 q-3.5 -5.5 -1.5 -13.5 l12 -36 ZM330 256 q2 -7 9 -12.5 q7 -5.5 15 -5.5 l347 0 q8 0 11.5 5.5 q3.5 5.5 1.5 12.5 l-12 37 q-3 7 -10 12.5 q-7 5.5 -14 5.5 l-348 0 q-8 0 -11.5 -5.5 q-3.5 -5.5 -0.5 -12.5 l12 -37 Z"></path></symbol><symbol id="home" viewBox="0 -128 1024 1024"><path d="M841 440 q0 -2 0 -4 l-329 -270 l-329 270 l0 278 q0 15 11 26 q11 11 25 11 l220 0 l0 -220 l146 0 l0 220 l220 0 q14 0 25 -11 q11 -11 11 -26 l0 -274 ZM969 400 q4 -5 3.5 -13 q-0.5 -8 -6.5 -12 l-125 -104 l0 -233 q0 -8 -5 -13.5 q-5 -5.5 -13 -5.5 l-110 0 q-8 0 -13 5.5 q-5 5.5 -5 13.5 l0 111 l-140 -117 q-18 -14 -43 -14 q-25 0 -43 14 l-411 343 q-6 4 -6.5 12 q-0.5 8 3.5 13 l36 43 q4 5 11.5 6 q7.5 1 14.5 -4 l395 -330 l395 330 q5 4 12 4 l2 0 q8 -1 12 -6 l36 -43 Z"></path></symbol><symbol id="calendar-minus-o" viewBox="0 -128 1024 1024"><path d="M658 512 q0 -8 -5 -13 q-5 -5 -13 -5 l-329 0 q-8 0 -13 5 q-5 5 -5 13 l0 37 q0 8 5 13 q5 5 13 5 l329 0 q8 0 13 -5 q5 -5 5 -13 l0 -37 ZM73 238 l805 0 l0 585 l-805 0 l0 -585 ZM293 128 q0 8 -5.5 13 q-5.5 5 -13.5 5 l-36 0 q-8 0 -13.5 -5 q-5.5 -5 -5.5 -13 l0 -165 q0 -8 5.5 -13 q5.5 -5 13.5 -5 l36 0 q8 0 13.5 5 q5.5 5 5.5 13 l0 165 ZM731 128 q0 8 -5 13 q-5 5 -13 5 l-36 0 q-8 0 -13.5 -5 q-5.5 -5 -5.5 -13 l0 -165 q0 -8 5.5 -13 q5.5 -5 13.5 -5 l36 0 q8 0 13 5 q5 5 5 13 l0 165 ZM951 91 q0 -29 -22 -51 q-22 -22 -51 -22 l-73 0 l0 -55 q0 -37 -27 -64 q-27 -27 -65 -27 l-36 0 q-38 0 -65 27 q-27 27 -27 64 l0 55 l-219 0 l0 -55 q0 -37 -27 -64 q-27 -27 -65 -27 l-36 0 q-38 0 -65 27 q-27 27 -27 64 l0 55 l-73 0 q-30 0 -51.5 22 q-21.5 22 -21.5 51 l0 732 q0 30 21.5 51.5 q21.5 21.5 51.5 21.5 l805 0 q29 0 51 -21.5 q22 -21.5 22 -51.5 l0 -732 Z"></path></symbol><symbol id="star" viewBox="0 -128 1024 1024"><path d="M932 334.15 l19 -24 q8 -10 8 -24 q0 -14 -7.5 -20.5 q-7.5 -6.5 -24.5 -11.5 l-275 -27 l-100 -255 l-5 -9 q-3 -6 -7.5 -11.5 q-4.5 -5.5 -11 -10 q-6.5 -4.5 -15.5 -4.5 q-17 0 -27 11 q-10 11 -15 26 l-103 255 l-275 26 q-10 2 -18 9.5 q-8 7.5 -9.5 21 q-1.5 13.5 6 26 q7.5 12.5 18.5 23.5 l193 176 l-30 133 l-35 149 q-2 8 1.5 16.5 q3.5 8.5 11 14 q7.5 5.5 17 7 q9.5 1.5 18.5 -3.5 q4 -2 17 -9.5 q13 -7.5 31 -18.5 l40 -25 l44 -27 q51 -31 115 -71 l232 144 l13 6 q8 3 13 3 q13 0 24 -6 q11 -6 8 -25 l-19 -101 q-4 -26 -10 -51 q-11 -61 -26 -136 l184 -176 ZM748 510.15 l0 0 Z"></path></symbol><symbol id="code-fork" viewBox="0 -128 1024 1024"><path d="M384 713 q0 23 -16 39 q-16 16 -39 16 q-23 0 -39 -16 q-16 -16 -16 -39 q0 -23 16 -39 q16 -16 39 -16 q23 0 39 16 q16 16 16 39 ZM384 55 q0 23 -16 39 q-16 16 -39 16 q-23 0 -39 -16 q-16 -16 -16 -39 q0 -23 16 -39 q16 -16 39 -16 q23 0 39 16 q16 16 16 39 ZM750 128 q0 23 -16 39 q-16 16 -39 16 q-23 0 -39 -16 q-16 -16 -16 -39 q0 -23 16 -39 q16 -16 39 -16 q23 0 39 16 q16 16 16 39 ZM805 128 q0 -46 -32 -78 q-32 -32 -78 -32 q-46 0 -78 32 q-32 32 -32 78 q0 30 15 55.5 q15 25.5 40 39.5 q0 30 -5 52.5 q-5 22.5 -16 39.5 q-11 17 -23 29 q-12 12 -33.5 22.5 q-21.5 10.5 -40.5 17.5 q-19 7 -50 17 q-57 18 -88 33 l0 -284 q25 -15 40 -40 q15 -25 15 -55 q0 -46 -32 -78 q-32 -32 -78 -32 q-46 0 -78 32 q-32 32 -32 78 q0 30 15 55 q15 25 40 40 l0 468 q-25 15 -40 40 q-15 25 -15 55 q0 46 32 78 q32 32 78 32 q46 0 78 -32 q32 -32 32 -78 q0 -30 -15 -55 q-15 -25 -40 -40 l0 -15 q0 -39 23.5 -56.5 q23.5 -17.5 97.5 -40.5 q77 -25 116 -47 q128 -72 129 -236 q25 -14 40 -39.5 q15 -25.5 15 -55.5 Z"></path></symbol><symbol id="slack" viewBox="0 -128 1024 1024"><path d="M244 414 l-101 0 q-42 1 -70.5 31 q-28.5 30 -28.5 75.5 q0 45.5 28.5 76 q28.5 30.5 70.5 31.5 q43 -1 71.5 -31.5 q28.5 -30.5 29.5 -75.5 l0 -107 ZM295 789 q1 46 29.5 76 q28.5 30 70.5 31 q43 -1 71.5 -31 q28.5 -30 29.5 -76 l0 -268 q-1 -46 -29.5 -76 q-28.5 -30 -71.5 -31 q-42 1 -70.5 31 q-28.5 30 -29.5 76 l0 268 ZM496 92 l0 -108 q-1 -45 -29.5 -75.5 q-28.5 -30.5 -71.5 -31.5 q-42 1 -70.5 31.5 q-28.5 30.5 -28.5 76 q0 45.5 28.5 75.5 q28.5 30 70.5 32 l101 0 ZM143 145 q-42 1 -70.5 31.5 q-28.5 30.5 -28.5 76 q0 45.5 28.5 76 q28.5 30.5 70.5 31.5 l252 0 q43 -1 71.5 -31.5 q28.5 -30.5 28.5 -76 q0 -45.5 -28.5 -76 q-28.5 -30.5 -71.5 -31.5 l-252 0 ZM799 360 l100 0 q43 -1 71.5 -31.5 q28.5 -30.5 28.5 -76 q0 -45.5 -28.5 -76 q-28.5 -30.5 -71.5 -31.5 q-43 1 -71 31.5 q-28 30.5 -29 76.5 l0 107 ZM748 -16 q-1 -45 -29.5 -75.5 q-28.5 -30.5 -71.5 -31.5 q-42 1 -70.5 31.5 q-28.5 30.5 -29.5 75.5 l0 269 q1 45 29.5 75.5 q28.5 30.5 70.5 31.5 q43 -1 71.5 -31.5 q28.5 -30.5 29.5 -75.5 l0 -269 ZM547 682 l0 107 q1 46 29.5 76 q28.5 30 70.5 31 q43 -1 71.5 -31 q28.5 -30 28.5 -76 q0 -46 -28.5 -76 q-28.5 -30 -71.5 -31 l-100 0 ZM899 628 q43 -1 71.5 -31.5 q28.5 -30.5 28.5 -76 q0 -45.5 -28.5 -75.5 q-28.5 -30 -71.5 -32 l-252 0 q-42 2 -70.5 32 q-28.5 30 -28.5 75.5 q0 45.5 28.5 76 q28.5 30.5 70.5 31.5 l252 0 Z"></path></symbol><symbol id="weibo" viewBox="0 -128 1024 1024"><path d="M550 429.2 q36 7 64.5 28 q28.5 21 45 53.5 q16.5 32.5 17.5 68 q1 35.5 -14 69.5 q-39 75 -113.5 106.5 q-74.5 31.5 -155.5 7.5 q-35 -9 -61.5 -31.5 q-26.5 -22.5 -41.5 -55 q-15 -32.5 -14 -67.5 q1 -35 17 -67 q40 -69 109 -99.5 q69 -30.5 147 -12.5 ZM474 658.2 q15 -22 7.5 -47.5 q-7.5 -25.5 -31.5 -36.5 q-27 -9 -52.5 -0.5 q-25.5 8.5 -41.5 32.5 q-15 21 -8.5 46.5 q6.5 25.5 29.5 36.5 q28 11 54.5 2 q26.5 -9 42.5 -33 ZM540 572.2 q6 -8 3 -17.5 q-3 -9.5 -13 -13 q-10 -3.5 -19.5 0 q-9.5 3.5 -15 12 q-5.5 8.5 -3 18 q2.5 9.5 12.5 13.5 q10 4 19.5 0.5 q9.5 -3.5 15.5 -13.5 ZM1030 284.2 q-17 -6 -24.5 -21 q-7.5 -15 -2.5 -32 q6 -20 2 -40.5 q-4 -20.5 -19 -36.5 q-15 -16 -35 -22.5 q-20 -6.5 -41 -2.5 q-11 3 -22 0 q-11 -3 -19 -11.5 q-8 -8.5 -10.5 -20 q-2.5 -11.5 1.5 -22.5 q4 -11 12.5 -18 q8.5 -7 20.5 -9 q43 -9 84 4 q41 13 70.5 45.5 q29.5 32.5 38.5 74.5 q9 42 -4 84 q-6 17 -21 24.5 q-15 7.5 -32 2.5 l1 1 ZM1176 -17.8 q60 69 78.5 155 q18.5 86 -8.5 173 q-7 20 -24.5 28.5 q-17.5 8.5 -37 2 q-19.5 -6.5 -28 -23.5 q-8.5 -17 -2.5 -37 q19 -61 6 -122.5 q-13 -61.5 -56 -109.5 q-43 -48 -103 -67.5 q-60 -19.5 -123 -6.5 q-20 4 -36 -6.5 q-16 -10.5 -20 -30.5 q-4 -20 6 -36.5 q10 -16.5 30 -21.5 q89 -18 172.5 9 q83.5 27 145.5 94 ZM948 365.2 q64 14 105.5 61 q41.5 47 47.5 112 q-4 126 -157.5 238 q-153.5 112 -414.5 120 q-205 -1 -362.5 -89.5 q-157.5 -88.5 -166.5 -246.5 q12 -104 60 -195.5 q48 -91.5 128 -159.5 q123 -121 240 -167 q117 -46 174 5 q23 33 27 72 q4 39 -13 76 q-5 22 11 19 q16 -3 19 -5 q98 -41 173.5 -41.5 q75.5 -0.5 107.5 43.5 q16 30 16 63 q0 33 -16 63 q-6 16 0.5 22.5 q6.5 6.5 20.5 9.5 ZM530 821.2 q160 -19 260 -99.5 q100 -80.5 94 -186.5 q-15 -106 -128.5 -165.5 q-113.5 -59.5 -274.5 -45.5 q-161 18 -260.5 99 q-99.5 81 -93.5 187 q15 105 128.5 164.5 q113.5 59.5 274.5 46.5 Z"></path></symbol><symbol id="stackoverflow" viewBox="0 -128 1024 1024"><path d="M621 681 l-408 0 l0 87 l408 0 l0 -87 ZM810 289 l-69 -402 l85 -15 l70 402 l-86 15 ZM623 656 l-406 -38 l8 -87 l406 38 l-8 87 ZM635 539 l-394 -106 l23 -84 l393 106 l-22 84 ZM664 431 l-350 -208 l44 -75 l351 207 l-45 76 ZM723 343 l-230 -337 l72 -49 l230 337 l-72 49 ZM768 469 l0 427 l-683 0 l0 -427 l71 0 l0 358 l542 0 l0 -358 l70 0 Z"></path></symbol><symbol id="twitter" viewBox="0 -128 1024 1024"><path d="M1024 58 q-43 66 -105 112 l1 28 q-1 225 -154 413 q-153 188 -444 200 q-86 0 -168 -25 q-82 -25 -154 -72 q84 10 164.5 -13 q80.5 -23 146.5 -76 q-70 -3 -122.5 -44 q-52.5 -41 -73.5 -106 q19 4 39 4 q29 0 56 -8 q-74 -16 -120.5 -73.5 q-46.5 -57.5 -48.5 -137.5 l0 -3 q44 26 95 27 q-43 -29 -68 -75.5 q-25 -46.5 -25 -104 q0 -57.5 28 -107.5 q79 98 190 157.5 q111 59.5 243 67.5 q-5 -24 -5 -49 q2 -92 61.5 -152.5 q59.5 -60.5 148.5 -63.5 q44 1 83.5 18.5 q39.5 17.5 69.5 49.5 q72 -14 134 -52 q-12 38 -35.5 68.5 q-23.5 30.5 -57.5 50.5 q63 -7 121 -34 Z"></path></symbol><symbol id="facebook" viewBox="0 -128 1024 1024"><path d="M547 499 l-133 0 l0 -154 l133 0 l0 -114 q1 -100 55 -152 q54 -52 144 -52 q43 0 75.5 2 q32.5 2 43.5 4 l0 138 l-82 0 q-47 0 -62.5 20.5 q-15.5 20.5 -13.5 54.5 l0 99 l153 0 l-20 154 l-133 0 l0 397 l260 0 q24 -1 40 -17 q16 -16 17 -40 l0 -910 q-1 -24 -17 -40 q-16 -16 -40 -17 l-910 0 q-24 1 -40 17 q-16 16 -17 40 l0 910 q1 24 16.5 40 q15.5 16 39.5 17 l491 0 l0 -397 Z"></path></symbol><symbol id="linkedin" viewBox="0 -128 1024 1024"><path d="M981 481 q-2 -137 -69 -203 q-67 -66 -170 -66 q-82 3 -130.5 34.5 q-48.5 31.5 -58.5 64.5 l0 -93 l-212 0 q2 69 1 314 l-1 278 l212 0 l0 -321 q0 -13 0.5 -25.5 q0.5 -12.5 4.5 -22.5 q11 -28 35.5 -49.5 q24.5 -21.5 66.5 -22.5 q55 1 81.5 37 q26.5 36 25.5 97 l0 307 l214 0 l0 -329 ZM149 170 q50 -1 78 -31 q28 -30 28 -76.5 q0 -46.5 -28 -76 q-28 -29.5 -77 -29.5 q-49 0 -78 30 q-29 30 -29 76 q0 46 28 76 q28 30 77 31 l1 0 ZM85 810 l171 0 l0 -598 l-171 0 l0 598 Z"></path></symbol><symbol id="file" viewBox="0 -128 1024 1024"><path d="M299 0 q-35 0 -60 25 q-25 25 -26 60 l0 598 q1 35 26 60 q25 25 60 25 l426 0 q35 0 60 -25 q25 -25 26 -60 l0 -409 q-1 -18 -13 -31 l-231 -230 q-12 -13 -30 -13 l-238 0 ZM597 299 q-35 -1 -60 -26 q-25 -25 -25 -60 l0 -136 l222 222 l-137 0 Z"></path></symbol><symbol id="rss" viewBox="0 -128 1024 1024"><path d="M872 724 q3 -5 4 -12 q-9 -136 -64 -258 q-55 -122 -151.5 -218.5 q-96.5 -96.5 -218.5 -151.5 q-122 -55 -258 -64 q-7 1 -12 4 l-13 7 l-7 13 q-3 5 -4 12 l0 72 q1 12 10 21 q9 9 21 10 q231 20 384.5 173.5 q153.5 153.5 173.5 384.5 q1 12 10 21 q9 9 21 10 l72 0 q8 -1 14.5 -4 q6.5 -3 10.5 -7 l7 -13 ZM604 737 q4 -7 4.5 -13 q0.5 -6 0.5 -17 q-4 -85 -39.5 -159.5 q-35.5 -74.5 -93.5 -132.5 q-58 -58 -134 -92 q-76 -34 -158 -41 l-5 0 q-4 0 -10 3 q-6 3 -10 7 q-4 4 -7 11 q-3 7 -4 14 l0 72 q1 12 10 21 q9 9 21 10 q121 14 202 95 q81 81 95 202 q1 12 10 21 q9 9 21 10 l72 0 q7 -1 14 -4 q7 -3 11 -7 ZM251 748 q40 -2 68 -30 q28 -28 28 -67.5 q0 -39.5 -26.5 -68 q-26.5 -28.5 -69.5 -29.5 q-40 1 -68 27.5 q-28 26.5 -29 69.5 q0 40 27 68 q27 28 70 30 Z"></path></symbol><symbol id="github" viewBox="0 -128 1024 1024"><path d="M0 401 q0 166 95.5 298.5 q95.5 132.5 247.5 185.5 q6 1 9.5 1 q3.5 0 6.5 -1.5 q3 -1.5 4.5 -3 q1.5 -1.5 2.5 -5.5 l0 -5 l0 -100 q-37 4 -66 -0.5 q-29 -4.5 -45.5 -14 q-16.5 -9.5 -29 -23.5 q-12.5 -14 -17.5 -26 l-14 -38 q-9 -15 -27 -27.5 q-18 -12.5 -27 -20 q-9 -7.5 -2 -14.5 q50 -26 113 66 q34 51 119 30 q10 -41 40 -70 q-116 -21 -172 -86 q-56 -65 -56 -158 q0 -87 55 -151 q-22 -65 6 -137 q29 -2 65 11.5 q36 13.5 50.5 23 q14.5 9.5 25.5 17.5 q57 -16 128.5 -16 q71.5 0 129.5 16 q13 -9 29 -19 q16 -10 49 -21.5 q33 -11.5 61 -9.5 q27 71 7 135 q56 64 56 151 q0 93 -57 158.5 q-57 65.5 -172 85.5 q43 43 43 104 l0 129 q0 1 1 3 q0 4 0.5 8 q0.5 4 4.5 7 q4 3 12 3 q153 -52 250.5 -185.5 q97.5 -133.5 97.5 -300.5 q0 -104 -40.5 -199 q-40.5 -95 -109 -163.5 q-68.5 -68.5 -163.5 -109 q-95 -40.5 -199 -40.5 q-104 0 -199 40.5 q-95 40.5 -163.5 109 q-68.5 68.5 -109 163.5 q-40.5 95 -40.5 199 Z"></path></symbol><symbol id="project" viewBox="0 -128 1024 1024"><path d="M512 36 q7 0 13 3 l327 169 q7 4 7 9 q0 5 -7 9 l-327 170 q-13 6 -26 0 l-327 -170 q-7 -4 -7 -9 q0 -5 7 -9 l327 -169 q6 -3 13 -3 ZM512 460 q22 0 42 -10 l326 -169 q19 -10 30 -27 q11 -17 11 -37 q0 -20 -11 -36.5 q-11 -16.5 -30 -27.5 l-326 -169 q-20 -10 -42 -10 q-22 0 -42 10 l-326 169 q-19 11 -30 27.5 q-11 16.5 -11 36.5 q0 20 11 37 q11 17 30 27 l326 169 q20 10 42 10 ZM512 624 q23 0 43 -11 l349 -181 q12 -6 15.5 -17.5 q3.5 -11.5 -2.5 -23 q-6 -11.5 -17.5 -15.5 q-11.5 -4 -23.5 2 l-349 181 q-15 7 -30 0 l-349 -181 q-11 -6 -23.5 -2 q-12.5 4 -18 15 q-5.5 11 -2 23 q3.5 12 15.5 18 l348 181 q21 11 44 11 ZM512 794 q23 0 43 -11 l349 -181 q11 -6 14.5 -17.5 q3.5 -11.5 -2.5 -23 q-6 -11.5 -17 -15 q-11 -3.5 -23 1.5 l-349 181 q-15 7 -30 0 l-349 -181 q-12 -5 -23.5 -1.5 q-11.5 3.5 -17 15 q-5.5 11.5 -2 23 q3.5 11.5 14.5 17.5 l348 181 q21 11 44 11 Z"></path></symbol><symbol id="dribble" viewBox="0 -128 1024 1024"><path d="M540 223 q-48 -78 -88 -128.5 q-40 -50.5 -57 -68.5 q57 -18 117 -18 q78 0 149 30 q48 20 89 53 q-35 57 -86 95.5 q-51 38.5 -109 62.5 q-8 -13 -15 -26 ZM619 287 q114 -58 177 -153 q43 48 68 107 q29 69 30 145 q-145 -49 -280 -20 q-14 -32 -29 -63 q17 -7 34 -16 ZM496 270 q-58 17 -110 25 q-88 13 -155.5 13.5 q-67.5 0.5 -91.5 -2.5 q8 -33 21 -65 q29 -69 82 -122 q41 -41 92 -68 l8 9 q3 1 46 52.5 q43 51.5 100 143.5 l8 14 ZM889 449 q-7 46 -25 89 q-29 68 -82 121 q-35 35 -76 59 q-10 -133 -57 -267 l-11 -28 q117 -21 246 25 l0 0 l5 1 ZM394 472 q-63 52 -102.5 101 q-39.5 49 -56.5 78 q-48 -50 -75 -113 q-29 -71 -30 -149 q0 -11 1 -22 l31 2 q21 1 52 1 q36 0 82 -3 q46 -3 98 -11 q71 -11 133 -31 q14 27 27 57 q-84 30 -160 90 ZM646 747 q-65 24 -134 24 q-78 0 -149 -30 q-44 -19 -82 -48 q12 -21 50 -70.5 q38 -49.5 101 -102.5 q70 -55 146 -81 q27 66 45 142.5 q18 76.5 22 159.5 l1 6 Z"></path></symbol><symbol id="telegram" viewBox="0 -128 1024 1024"><path d="M389 760.95 q17 -1 27.5 -7.5 q10.5 -6.5 19.5 -16.5 l112 -109 l234 173 q32 17 54 7.5 q22 -9.5 31 -48.5 l153 -723 q10 -48 -11 -67.5 q-21 -19.5 -54 -5.5 l-901 348 q-46 19 -47.5 40 q-1.5 21 35.5 33 l232 73 l535 -338 q21 -11 32 -7 q11 4 -2 18 l-434 391 l-16 239 ZM389 760.95 l0 0 Z"></path></symbol><symbol id="map-icon" viewBox="0 -128 1024 1024"><path d="M512 16 q120 3 200 83 q80 80 83 200 q1 82 -36.5 145.5 q-37.5 63.5 -121.5 137.5 q-81 77 -104.5 123 q-23.5 46 -20.5 47 q3 -1 -20.5 -47 q-23.5 -46 -104.5 -123 q-84 -74 -121.5 -137.5 q-37.5 -63.5 -36.5 -145.5 q3 -120 83 -200 q80 -80 200 -83 ZM512 435 q58 -1 96.5 -39.5 q38.5 -38.5 39.5 -96.5 q-1 -58 -39.5 -96.5 q-38.5 -38.5 -96.5 -39.5 q-58 1 -96.5 39.5 q-38.5 38.5 -39.5 96.5 q1 58 39.5 96.5 q38.5 38.5 96.5 39.5 Z"></path></symbol><symbol id="folder" viewBox="0 -128 1024 1024"><path d="M843 181 q29 1 47.5 20 q18.5 19 19.5 48 l0 439 q-1 28 -19.5 47 q-18.5 19 -47.5 20 l-662 0 q-29 -1 -47.5 -20 q-18.5 -19 -19.5 -47 l0 -608 q1 -28 19.5 -47 q18.5 -19 47.5 -20 l112 0 q19 0 34 9 q15 9 23 25 l59 101 q10 15 25 24 q15 9 33 9 l376 0 ZM843 46 q29 1 47.5 20 q18.5 19 19.5 48 q-1 7 -5.5 10 q-4.5 3 -9.5 0 q-23 -10 -52 -10 l-364 0 q-10 -1 -15 -11 l-26 -45 q-3 -4 -1 -8 q2 -4 7 -4 l399 0 Z"></path></symbol><symbol id="link" viewBox="0 -128 1024 1024"><path d="M894 837 q-24 25 -56 39 q-34 12 -68 12 q-37 0 -69 -14 q-33 -13 -57 -38 l-129 -128 q-24 -25 -37 -58 q-13 -33 -13 -67 q0 -37 13 -71 q15 -33 41 -59 l-54 -54 q-26 26 -59 40 q-33 14 -70 14 q-36 0 -68 -13 q-33 -14 -58 -39 l-128 -128 q-26 -26 -40 -58 q-12 -32 -12 -68 q0 -36 13.5 -68 q13.5 -32 38.5 -58 l91 -90 q25 -25 57 -39 q33 -12 68 -12 q37 0 69 14 q32 13 57 38 l128 128 q25 25 37 58 q14 33 14 67 q0 37 -14 71 q-14 33 -40 59 l54 54 q26 -26 59 -41 q32 -13 69 -13 q36 0 68 13 q34 14 58 39 l129 128 q26 26 39 58 q13 32 13 68 q0 36 -14 68 q-13 32 -38 58 l-92 90 ZM340 16 q-8 -9 -19 -14 q-11 -3 -23 -3 q-11 0 -22 3 q-12 5 -20 13 l-90 90 q-9 8 -13.5 18.5 q-4.5 10.5 -4.5 23.5 q0 12 4 22 q5 11 14 20 l128 128 q9 9 20 13 q10 3 22 3 q26 2 45 -18 q-16 -15 -30 -31 q-14 -15 -15 -38 q0 -25 17 -42 q18 -18 42 -18 q24 2 39 15 q16 14 31 30 q9 -10 14 -20.5 q5 -10.5 5 -25.5 q0 -11 -3 -22 q-5 -11 -14 -20 l-127 -127 ZM773 451 q-8 -9 -18.5 -13.5 q-10.5 -4.5 -23.5 -4.5 q-26 0 -44 20 q16 15 29.5 30.5 q13.5 15.5 14.5 38.5 q0 25 -17 42.5 q-17 17.5 -42 17.5 q-23 -2 -38 -15 q-16 -14 -31 -30 q-10 10 -15 20 q-5 11 -5 26 q0 11 4 22 q5 11 13 20 l128 127 q7 9 18 13 q11 4 24 4 q11 0 22 -5 q11 -3 20 -11 l90 -90 q9 -8 13 -20 q4 -9 4 -22 q0 -12 -4 -22.5 q-4 -10.5 -13 -19.5 l-129 -128 Z"></path></symbol></defs></svg>